<?xml version="1.0" encoding="UTF-8" standalone="no"?>
<!DOCTYPE svg PUBLIC "-//W3C//DTD SVG 1.1//EN" "http://www.w3.org/Graphics/SVG/1.1/DTD/svg11.dtd">
<svg width="100%" height="100%" viewBox="0 0 386 63" version="1.1" xmlns="http://www.w3.org/2000/svg" xmlns:xlink="http://www.w3.org/1999/xlink" xml:space="preserve" xmlns:serif="http://www.serif.com/" style="fill-rule:evenodd;clip-rule:evenodd;stroke-linejoin:round;stroke-miterlimit:2;">
    <g transform="matrix(1,0,0,1,-13.8,-353)">
        <g>
            <g>
                <path d="M368.2,353.7C351.1,353.7 337.2,367.6 337.2,384.7C337.2,401.8 351.1,415.7 368.2,415.7C385.3,415.7 399,401.8 399,384.7C399,367.6 385.2,353.7 368.2,353.7M368.2,401.5C358.8,401.5 351.3,393.8 351.3,384.6C351.3,375.4 358.8,367.9 368.2,367.9C377.4,367.9 384.9,375.4 384.9,384.6C384.9,393.9 377.4,401.5 368.2,401.5" style="fill:white;fill-rule:nonzero;"/>
                <path d="M254.7,353C247.9,353 240.9,354.4 235.4,356.7C230.9,354.1 226.5,353 220.3,353C212.5,353 204.5,354 195.8,357L194.2,357.5L194.2,414.4L209.7,414.4L209.7,367.7C212.8,366.7 215.3,366.3 218.4,366.3C226.1,366.3 228.3,368.7 228.3,376.7L228.3,414.3L244,414.3L244,375.7C244,372.2 243.8,370 243.3,367.9C246.4,366.9 248.9,366.3 251.7,366.3C259,366.3 262.3,369.6 262.3,376.7L262.3,414.3L277.8,414.3L277.8,375.5C277.8,367.8 276.6,363.3 273.1,359.5C269.2,355.4 262.7,353 254.7,353" style="fill:white;fill-rule:nonzero;"/>
                <path d="M316.8,402.1C306.5,402.1 300.6,395.7 300.6,384.5C300.6,373 306.6,366.5 317,366.5C319.2,366.5 321,366.7 322.7,367.2C322.7,367.2 325.9,368.1 328.7,370.3L335.3,359.1C331.7,356.1 327.5,354.8 326.1,354.5C322.1,353.3 316.2,353.1 316.2,353.1C297.6,353.1 285.1,366 285.1,385.2C285.1,403.7 297,415.6 315.3,415.6C315.3,415.6 327.6,416.1 335.9,408.5L328.2,398.6C323.9,401.3 321,402.1 316.8,402.1" style="fill:white;fill-rule:nonzero;"/>
                <path d="M114.8,353.5C92.7,353.5 82.4,363.2 82.4,384L82.4,414.5L98.2,414.5L98.2,383.9C98.2,373.5 104.1,367 113.3,367C117.1,367 120.1,367.7 122.2,368.2L125.9,354.4C119.9,353.5 114.8,353.5 114.8,353.5" style="fill:white;fill-rule:nonzero;"/>
            </g>
            <g>
                <path d="M185.1,382.2L185.1,414.4L163.9,414.4C149.3,414.4 142.8,413.4 135.2,408.3C128.6,403.8 124.9,395.2 124.9,384.1C124.9,368.8 135,353.3 157.3,353.3C175.3,353.3 185.1,363.4 185.1,382.2M169.6,384C169.6,372.3 165.1,366.6 156,366.6C146.8,366.6 140.9,373.4 140.9,383.7C140.9,396.1 146.8,401.5 160,401.5L169.6,401.5L169.6,384Z" style="fill:white;fill-rule:nonzero;"/>
                <path d="M73.9,382.2L73.9,414.4L52.8,414.4C38.2,414.4 31.7,413.4 24.1,408.3C17.5,403.8 13.8,395.2 13.8,384.1C13.8,368.8 23.9,353.3 46.2,353.3C64.3,353.3 73.9,363.4 73.9,382.2M57.8,384C57.8,372.2 53.6,366.6 44.4,366.6C35.2,366.6 29.3,373.4 29.3,383.7C29.3,396.1 35.2,401.5 48.4,401.5L57.8,401.5L57.8,384Z" style="fill:white;fill-rule:nonzero;"/>
            </g>
        </g>
    </g>
</svg>
