<?xml version="1.0" encoding="UTF-8" standalone="no"?><!DOCTYPE svg PUBLIC "-//W3C//DTD SVG 1.1//EN" "http://www.w3.org/Graphics/SVG/1.1/DTD/svg11.dtd"><svg width="100%" height="100%" viewBox="0 0 5880 929" version="1.1" xmlns="http://www.w3.org/2000/svg" xmlns:xlink="http://www.w3.org/1999/xlink" xml:space="preserve" xmlns:serif="http://www.serif.com/" style="fill-rule:evenodd;clip-rule:evenodd;stroke-linejoin:round;stroke-miterlimit:2;"><g><path d="M313.773,928.616c-173.176,-0 -313.773,-140.597 -313.773,-313.773c-0,-173.176 140.597,-313.772 313.773,-313.772c172.829,-0 313.21,140.035 313.771,312.758l0.001,59.921l-500.709,-0c25.023,79.4 99.3,137.053 186.937,137.053l313.772,-0l0,117.813l-313.772,-0Zm186.936,-372.679l-373.873,-0c25.023,-79.401 99.3,-137.053 186.937,-137.053c87.636,-0 161.913,57.652 186.936,137.053Z" style="fill:#fff;"/><path d="M1373.05,615.858c-0.561,172.723 -140.942,312.758 -313.771,312.758c-173.176,-0 -313.773,-140.597 -313.773,-313.773c0,0 0,-313.772 0,-313.772l117.959,-0l0,321.405c4.01,104.616 90.213,188.327 195.814,188.327c105.601,-0 191.804,-83.711 195.813,-188.327l0,-321.405l117.959,-0l0,313.772l-0.001,1.015Z" style="fill:#fff;"/><path d="M1804.78,301.071c173.176,-0 313.773,140.596 313.773,313.772c-0,173.176 -140.597,313.773 -313.773,313.773c-173.176,-0 -313.772,-140.597 -313.772,-313.773c-0,-173.176 140.596,-313.772 313.772,-313.772Zm0,117.813c108.153,-0 195.96,87.806 195.96,195.959c-0,108.153 -87.807,195.96 -195.96,195.96c-108.153,-0 -195.96,-87.807 -195.96,-195.96c0,-108.153 87.807,-195.959 195.96,-195.959Z" style="fill:#fff;"/><path d="M2236.51,0l117.959,0l-0,614.843l-0.146,0l0.004,1.267c0.681,107.57 88.224,194.693 195.955,194.693l0,117.813c-173.175,-0 -313.772,-140.597 -313.772,-313.773l-0,-614.843Z" style="fill:#fff;"/><path d="M3177.83,859.957l0,68.659l117.96,-0l-0,-627.545l-117.96,-0l0,321.405c-4.009,104.616 -90.212,188.327 -195.813,188.327c-105.601,-0 -191.804,-83.711 -195.813,-188.327l-0,-321.405l-117.959,-0l-0,313.772l0.001,1.015c0.561,172.723 140.942,312.758 313.771,312.758c74.033,-0 142.111,-25.695 195.813,-68.659Z" style="fill:#fff;"/><path d="M3531.71,301.071l188.179,-0l-0,117.959l-188.179,-0l-0,195.813l-0.146,0.264c0.14,108.03 87.893,195.696 195.959,195.696c108.153,-0 195.96,-87.807 195.96,-195.96l117.813,0c-0,173.176 -140.597,313.773 -313.773,313.773c-173.175,-0 -313.772,-140.597 -313.772,-313.773l-0,-614.843l117.959,-0l-0,301.071Z" style="fill:#fff;"/><path d="M4820.72,301.455c173.176,-0 313.773,140.597 313.773,313.772c-0,173.176 -140.597,313.773 -313.773,313.773c-173.176,-0 -313.772,-140.597 -313.772,-313.773c-0,-173.175 140.596,-313.772 313.772,-313.772Zm0,117.813c108.153,-0 195.96,87.806 195.96,195.959c-0,108.154 -87.807,195.96 -195.96,195.96c-108.153,0 -195.96,-87.806 -195.96,-195.96c0,-108.153 87.807,-195.959 195.96,-195.959Z" style="fill:#fff;"/><path d="M5252.46,613.829c0.561,-172.723 140.942,-312.758 313.771,-312.758c173.176,-0 313.773,140.596 313.773,313.772c0,0 0,313.773 0,313.773l-117.959,-0l-0,-321.405c-4.01,-104.616 -90.213,-188.327 -195.814,-188.327c-105.6,-0 -191.803,83.711 -195.813,188.327l0,321.405l-117.959,-0l-0,-313.773l0.001,-1.014Z" style="fill:#fff;"/><path d="M4283.13,929c-21.44,0 -32.16,-10.273 -32.16,-30.82c-2.578,-249.184 -2.203,-498.457 0,-747.716l-155.439,60.299c-8.933,3.574 -15.857,5.807 -20.77,6.7c-4.913,0.894 -8.71,1.34 -11.39,1.34c-16.08,0 -24.12,-8.04 -24.12,-24.12l0,-77.719l62.98,-28.14c74.146,-32.16 130.649,-54.94 169.509,-68.34c38.86,-13.4 66.776,-20.1 83.75,-20.1c12.506,0 21.216,2.903 26.129,8.71c4.914,5.807 7.37,13.177 7.37,22.11l0,897.796l-105.859,0Z" style="fill:#fff;fill-rule:nonzero;"/></g></svg>