<?xml version="1.0" encoding="UTF-8" standalone="no"?>
<!DOCTYPE svg PUBLIC "-//W3C//DTD SVG 1.1//EN" "http://www.w3.org/Graphics/SVG/1.1/DTD/svg11.dtd">
<svg width="100%" height="100%" viewBox="0 0 1442 604" version="1.1" xmlns="http://www.w3.org/2000/svg" xmlns:xlink="http://www.w3.org/1999/xlink" xml:space="preserve" xmlns:serif="http://www.serif.com/" style="fill-rule:evenodd;clip-rule:evenodd;stroke-linejoin:round;stroke-miterlimit:2;">
    <g transform="matrix(1,0,0,1,-648.049,-228.129)">
        <g transform="matrix(1,0,0,1,352,557)">
            <g id="Horizontal_-_Black" transform="matrix(1,0,0,1,0,228.129)">
                <g transform="matrix(1,0,0,1,296.049,-606.15)">
                    <path d="M1172.88,370.84L1187.12,370.84L1187.12,409L1195,409L1195,370.84L1209.32,370.84L1209.32,364L1172.89,364L1172.88,370.84ZM1214.42,409L1221.92,409L1221.92,374.29L1234.51,409L1241,409L1253.89,374.29L1253.89,409L1261.39,409L1261.39,364L1250.1,364L1238,399.25L1225.51,364L1214.41,364L1214.42,409ZM363.15,254.19L203.54,409L0,409L253.24,157.63C347.4,64.14 392.76,49.15 553.34,49.15L1187.5,49.15L1049.86,184.09L571.64,184.09C451.69,184.09 426,193.16 363.15,254.19ZM1029.32,205.39L574.41,205.39C453.56,205.39 434.67,214.69 379.87,269.49L240.35,409L429.19,409L474.19,364C504.19,334 517.19,331.46 576.97,331.46L903.3,331.46L1029.32,205.39ZM1080.45,409L1441.27,49.15L1215.27,49.15L855.39,409L1080.45,409Z" style="fill:rgb(255,30,0);fill-rule:nonzero;"/>
                </g>
                <g transform="matrix(0.538159,0,0,0.538159,-519.961,-149.98)">
                    <g transform="matrix(1,0,0,1,0,-49.05)">
                        <path d="M1605.06,104.18L1516.3,104.18L1516.3,49.05L1605.06,49.05L1605.06,104.18ZM1516.3,408.76L1516.3,128.47L1605.06,128.47L1605.06,408.76L1516.3,408.76Z" style="fill-rule:nonzero;"/>
                    </g>
                    <g transform="matrix(1,0,0,1,0,-49.05)">
                        <path d="M1664.85,408.76L1664.85,128.47L1838.63,128.47C1879.42,128.47 1909.01,138.747 1927.39,159.3C1945.77,179.853 1954.97,207.727 1955,242.92L1955,408.76L1866.24,408.76L1866.24,240.59C1866.24,226.27 1863.83,216.07 1859,209.99C1854.17,203.91 1844.91,200.873 1831.21,200.88L1753.66,200.88L1753.66,408.76L1664.85,408.76Z" style="fill-rule:nonzero;"/>
                    </g>
                    <g transform="matrix(1,0,0,1,0,-49.05)">
                        <path d="M2296.9,278.43L2212.81,253.67C2180.42,244.023 2156.44,230.787 2140.87,213.96C2125.3,197.133 2117.52,177.047 2117.51,153.7C2117.51,124.427 2127.79,101.223 2148.34,84.09C2168.89,66.957 2197.86,58.393 2235.23,58.4L2415.08,58.4L2415.08,135.48L2234.77,135.48C2224.77,135.48 2217.77,137.27 2213.77,140.85C2209.77,144.43 2207.75,148.4 2207.7,152.76C2207.53,157.984 2209.67,163.025 2213.54,166.54C2217.43,170.127 2223.74,173.163 2232.46,175.65L2317.95,200.41C2354.08,211.003 2381.25,224.003 2399.47,239.41C2417.69,254.817 2426.8,276.383 2426.8,304.11C2426.87,318.071 2424.09,331.901 2418.63,344.75C2413.11,357.607 2404.63,368.975 2393.87,377.92C2382.81,387.253 2368.81,394.727 2351.87,400.34C2334.93,405.953 2315.08,408.757 2292.31,408.75L2126.86,408.75L2126.86,331.68L2306.25,331.68C2318.08,331.68 2326.34,329.347 2331.01,324.68C2335.5,320.431 2338.03,314.51 2338.01,308.33C2338.01,300.857 2335.13,295.173 2329.37,291.28C2323.61,287.387 2312.79,283.103 2296.9,278.43Z" style="fill-rule:nonzero;"/>
                    </g>
                    <g transform="matrix(1,0,0,1,0,-49.05)">
                        <path d="M2607.09,196.21C2588.71,196.21 2575.24,200.337 2566.68,208.59C2558.12,216.843 2553.84,229.38 2553.83,246.2L2553.83,294.32C2553.83,312.987 2558.11,325.443 2566.68,331.69C2575.25,337.937 2588.72,341.05 2607.09,341.03L2712.2,341.03L2712.2,408.77L2604.29,408.77C2554.14,408.77 2518.02,397.87 2495.91,376.07C2473.8,354.27 2462.75,324.217 2462.74,285.91L2462.74,251.8C2462.74,213.493 2473.8,183.363 2495.91,161.41C2518.02,139.457 2554.15,128.48 2604.29,128.48L2712.2,128.48L2712.2,196.22L2607.09,196.21Z" style="fill-rule:nonzero;"/>
                    </g>
                    <g transform="matrix(1,0,0,1,0,-49.05)">
                        <path d="M2762.65,408.76L2762.65,58.39L2851.41,58.39L2851.41,128.46L2936.41,128.46C2977.2,128.46 3006.79,138.737 3025.17,159.29C3043.55,179.843 3052.74,207.717 3052.73,242.91L3052.73,408.76L2964,408.76L2964,240.59C2964,226.27 2961.59,216.07 2956.76,209.99C2951.93,203.91 2942.68,200.873 2929,200.88L2851.45,200.88L2851.45,408.76L2762.65,408.76Z" style="fill-rule:nonzero;"/>
                    </g>
                    <g transform="matrix(1,0,0,1,0,-49.05)">
                        <path d="M3402.18,251.8L3402.18,285.44C3402.18,324.373 3390.42,355.44 3366.91,378.64C3343.4,401.84 3309.84,413.44 3266.24,413.44L3233.54,413.44C3189.93,413.44 3156.3,401.84 3132.63,378.64C3108.96,355.44 3097.13,324.373 3097.13,285.44L3097.13,251.8C3097.13,212.873 3108.96,181.807 3132.63,158.6C3156.3,135.393 3189.93,123.793 3233.54,123.8L3266.24,123.8C3309.84,123.8 3343.4,135.4 3366.91,158.6C3390.42,181.8 3402.18,212.867 3402.18,251.8ZM3311.09,244.33C3311.09,226.27 3307.76,212.8 3301.09,203.92C3294.42,195.04 3282.49,190.6 3265.3,190.6L3234.47,190.6C3217.34,190.6 3205.34,195.037 3198.47,203.91C3191.6,212.783 3188.18,226.253 3188.19,244.32L3188.19,292.44C3188.19,310.82 3191.62,324.447 3198.47,333.32C3205.32,342.193 3217.32,346.63 3234.47,346.63L3265.3,346.63C3282.43,346.63 3294.34,342.193 3301.04,333.32C3307.74,324.447 3311.07,310.82 3311.04,292.44L3311.09,244.33Z" style="fill-rule:nonzero;"/>
                    </g>
                    <g transform="matrix(1,0,0,1,0,-49.05)">
                        <path d="M3741.79,251.8L3741.79,285.44C3741.79,324.373 3730.03,355.44 3706.52,378.64C3683.01,401.84 3649.45,413.44 3605.85,413.44L3573.15,413.44C3529.54,413.44 3495.91,401.84 3472.24,378.64C3448.57,355.44 3436.74,324.373 3436.74,285.44L3436.74,251.8C3436.74,212.873 3448.57,181.807 3472.24,158.6C3495.91,135.393 3529.54,123.793 3573.15,123.8L3605.85,123.8C3649.45,123.8 3683.01,135.4 3706.52,158.6C3730.03,181.8 3741.79,212.867 3741.79,251.8ZM3650.7,244.33C3650.7,226.27 3647.37,212.8 3640.7,203.92C3634.03,195.04 3622.12,190.603 3604.96,190.61L3574.13,190.61C3557,190.61 3545,195.047 3538.13,203.92C3531.26,212.793 3527.84,226.263 3527.85,244.33L3527.85,292.45C3527.85,310.83 3531.28,324.457 3538.13,333.33C3544.98,342.203 3556.98,346.64 3574.13,346.64L3604.96,346.64C3622.09,346.64 3634,342.203 3640.7,333.33C3647.4,324.457 3650.73,310.83 3650.7,292.45L3650.7,244.33Z" style="fill-rule:nonzero;"/>
                    </g>
                    <g transform="matrix(1,0,0,1,0,-49.05)">
                        <rect x="3791.77" y="58.39" width="88.76" height="350.37" style="fill-rule:nonzero;"/>
                    </g>
                    <g transform="matrix(1,0,0,1,0,-49.05)">
                        <path d="M4094.48,310.66L4018.33,295.71C3990.33,290.103 3968.92,280.293 3954.1,266.28C3939.28,252.267 3931.88,233.58 3931.91,210.22C3931.88,199.468 3934.03,188.821 3938.22,178.92C3942.57,168.757 3949.3,159.785 3957.84,152.76C3966.71,145.287 3978.08,139.37 3991.94,135.01C4005.8,130.65 4022.23,128.47 4041.23,128.47L4180.44,128.47L4180.44,196.21L4034.22,196.21C4024.89,196.21 4018.66,197.61 4015.53,200.41C4012.4,203.21 4010.85,206.323 4010.86,209.75C4010.85,213.458 4012.37,217.01 4015.06,219.56C4017.86,222.36 4022.69,224.383 4029.54,225.63L4098.68,239.18C4132.93,246.033 4157.46,256.233 4172.26,269.78C4187.06,283.327 4194.46,301.327 4194.45,323.78C4194.45,349.007 4184.87,369.483 4165.72,385.21C4146.57,400.937 4117.53,408.8 4078.6,408.8L3941.26,408.8L3941.26,341L4093.55,341C4103.52,341 4109.98,339.6 4112.94,336.8C4115.89,334.022 4117.51,330.109 4117.38,326.06C4117.55,321.68 4115.05,317.608 4111.07,315.78C4105.82,313.278 4100.23,311.553 4094.48,310.66Z" style="fill-rule:nonzero;"/>
                    </g>
                </g>
            </g>
        </g>
    </g>
</svg>
